<svg xmlns="http://www.w3.org/2000/svg" viewBox="0 0 416.01 448"><defs><style>.cls-1{fill:#9191a3;}</style></defs><title>icon-person-medium</title><g id="Layer_2" data-name="Layer 2"><g id="Layer_1-2" data-name="Layer 1"><g id="icon-person-medium"><path class="cls-1" d="M284.65,32.58C265.19,11.57,238,0,208,0c-30.16,0-57.43,11.5-76.8,32.38-19.58,21.11-29.12,49.8-26.88,80.78C108.77,174.28,155.28,224,208,224s99.16-49.71,103.67-110.82C314,82.48,304.35,53.85,284.65,32.58Z"/><path class="cls-1" d="M384,448H32a31,31,0,0,1-24.2-11.13c-6.5-7.77-9.12-18.38-7.18-29.11C9.07,360.94,35.41,321.61,76.81,294c36.78-24.51,83.37-38,131.2-38s94.42,13.5,131.2,38c41.4,27.6,67.74,66.93,76.18,113.75,1.94,10.73-.68,21.34-7.18,29.11A31,31,0,0,1,384,448Z"/></g></g></g></svg>