<svg xmlns="http://www.w3.org/2000/svg" viewBox="0 0 479.97 448.07"><defs><style>.cls-1{fill:#ec1c24;}</style></defs><title>icon-star-danger</title><g id="Layer_2" data-name="Layer 2"><g id="Layer_1-2" data-name="Layer 1"><path id="icon-star-danger" class="cls-1" d="M378,448a16,16,0,0,1-9.39-3L240,351.78,111.35,445A16,16,0,0,1,86.8,426.94L137,278.37,7,189.22A16,16,0,0,1,16,160H176.34l48.4-149a16,16,0,0,1,30.44,0l48.4,149H464a16,16,0,0,1,9.05,29.2l-130,89.1L393.09,426.9A16,16,0,0,1,378,448Z"/></g></g></svg>