<svg xmlns="http://www.w3.org/2000/svg" viewBox="0 0 14 14"><title>Point (2)</title><g id="Layer_2" data-name="Layer 2"><g id="Content"><g id="Point"><path d="M12,2.05A7,7,0,0,0,2.05,12,7,7,0,0,0,12,2.05Zm-.4,9.5a6.42,6.42,0,0,1-9.1,0,6.42,6.42,0,0,1,0-9.1,6.42,6.42,0,0,1,9.1,0,6.42,6.42,0,0,1,0,9.1Z"/><path d="M8.17,4.28A6.44,6.44,0,0,0,6.82,4.2H5V9.8H6.14V7.68h.73A5.94,5.94,0,0,0,8.05,7.6a1.58,1.58,0,0,0,.58-.26,1.61,1.61,0,0,0,.48-.55,1.93,1.93,0,0,0,.19-.87A1.71,1.71,0,0,0,9,4.83,1.43,1.43,0,0,0,8.17,4.28ZM8,6.37a.68.68,0,0,1-.35.27,2.85,2.85,0,0,1-.89.09H6.14V5.14h.54a6.38,6.38,0,0,1,.82,0A.78.78,0,0,1,8,5.43a.71.71,0,0,1,.18.5A.74.74,0,0,1,8,6.37Z"/></g></g></g></svg>